<svg width="35" height="35" viewBox="0 0 35 35" fill="none" xmlns="http://www.w3.org/2000/svg">
<path d="M5.83333 18.9583H14.5833C15.3854 18.9583 16.0417 18.3021 16.0417 17.5V5.83333C16.0417 5.03125 15.3854 4.375 14.5833 4.375H5.83333C5.03125 4.375 4.375 5.03125 4.375 5.83333V17.5C4.375 18.3021 5.03125 18.9583 5.83333 18.9583ZM5.83333 30.625H14.5833C15.3854 30.625 16.0417 29.9688 16.0417 29.1667V23.3333C16.0417 22.5312 15.3854 21.875 14.5833 21.875H5.83333C5.03125 21.875 4.375 22.5312 4.375 23.3333V29.1667C4.375 29.9688 5.03125 30.625 5.83333 30.625ZM20.4167 30.625H29.1667C29.9688 30.625 30.625 29.9688 30.625 29.1667V17.5C30.625 16.6979 29.9688 16.0417 29.1667 16.0417H20.4167C19.6146 16.0417 18.9583 16.6979 18.9583 17.5V29.1667C18.9583 29.9688 19.6146 30.625 20.4167 30.625ZM18.9583 5.83333V11.6667C18.9583 12.4688 19.6146 13.125 20.4167 13.125H29.1667C29.9688 13.125 30.625 12.4688 30.625 11.6667V5.83333C30.625 5.03125 29.9688 4.375 29.1667 4.375H20.4167C19.6146 4.375 18.9583 5.03125 18.9583 5.83333Z" fill="white"/>
</svg>
