<svg width="30" height="26" viewBox="0 0 30 26" fill="none" xmlns="http://www.w3.org/2000/svg">
<path d="M16.3923 0C16.1025 0 15.8669 0.20495 15.8669 0.457515C15.8669 0.480977 15.8784 0.501334 15.8824 0.524106H15.8669V11.3713C15.8669 11.6238 16.1025 11.8288 16.3923 11.8288H28.8572V11.8153C28.8834 11.8188 28.9068 11.8288 28.9342 11.8288C29.224 11.8288 29.4595 11.6238 29.4595 11.3713C29.385 5.11927 23.577 0.0652114 16.3923 0Z" fill="white"/>
<path d="M26.4207 14.0049C26.4207 13.7524 26.1856 13.5474 25.8953 13.5474H14.4367C14.2974 13.5473 14.1637 13.4991 14.0652 13.4133C13.9667 13.3275 13.9114 13.2112 13.9114 13.0899V3.15533H13.8959C13.8999 3.13256 13.9114 3.1122 13.9114 3.08874C13.9114 2.83583 13.6759 2.63123 13.3856 2.63123C13.3729 2.63123 13.3626 2.63675 13.3503 2.63744V2.63433C13.3035 2.63399 13.2571 2.63123 13.2104 2.63123C5.91466 2.63123 0 7.7781 0 14.1267C0 20.4753 5.91466 25.6222 13.2104 25.6222C20.506 25.6222 26.4207 20.4753 26.4207 14.1267C26.4207 14.0901 26.4187 14.0539 26.4179 14.017C26.4179 14.0125 26.4207 14.0091 26.4207 14.0049Z" fill="white"/>
</svg>
