<svg width="50" height="50" viewBox="0 0 50 50" fill="none" xmlns="http://www.w3.org/2000/svg">
<path d="M31.8945 25.9766L22.5195 32.2266C22.343 32.3428 22.1383 32.4092 21.9272 32.4186C21.716 32.428 21.5062 32.3801 21.3201 32.28C21.1339 32.1799 20.9783 32.0313 20.8697 31.85C20.7611 31.6687 20.7035 31.4614 20.7031 31.25V18.75C20.7034 18.5369 20.7617 18.328 20.8718 18.1456C20.9819 17.9632 21.1397 17.8143 21.3281 17.7148C21.5132 17.615 21.722 17.5677 21.932 17.578C22.142 17.5883 22.3452 17.6559 22.5195 17.7734L31.8945 24.0234C32.0557 24.1303 32.1879 24.2754 32.2793 24.4458C32.3708 24.6162 32.4186 24.8066 32.4186 25C32.4186 25.1934 32.3708 25.3838 32.2793 25.5541C32.1879 25.7245 32.0557 25.8697 31.8945 25.9766ZM23.0469 20.9375V29.0625L29.1406 25L23.0469 20.9375ZM45.3906 36.2695C45.2207 36.9287 44.8965 37.5381 44.4449 38.0474C43.9933 38.5568 43.4271 38.9516 42.793 39.1992C36.1328 41.7578 25.4492 41.7187 25 41.7187C24.5508 41.7187 13.8672 41.7578 7.20703 39.1992C6.57293 38.9516 6.00674 38.5568 5.55511 38.0474C5.10348 37.5381 4.77933 36.9287 4.60938 36.2695C4.10156 34.3555 3.51562 30.8398 3.51562 25C3.51562 19.1602 4.10156 15.6445 4.60938 13.7305C4.77933 13.0713 5.10348 12.4619 5.55511 11.9525C6.00674 11.4432 6.57293 11.0484 7.20703 10.8008C13.8672 8.24218 24.5508 8.28124 25 8.28124H25.1367C26.4844 8.28124 36.4453 8.35937 42.793 10.8008C43.4271 11.0484 43.9933 11.4432 44.4449 11.9525C44.8965 12.4619 45.2207 13.0713 45.3906 13.7305C45.8984 15.6445 46.4844 19.1602 46.4844 25C46.4844 30.8398 45.8984 34.3555 45.3906 36.2695ZM43.125 14.3164C43.0481 14.0183 42.9019 13.7427 42.6983 13.5119C42.4946 13.2811 42.2393 13.1016 41.9531 12.9883C35.7031 10.5859 25.1172 10.625 25 10.625C24.8828 10.625 14.2969 10.5859 8.04688 12.9883C7.76071 13.1016 7.50538 13.2811 7.30173 13.5119C7.09808 13.7427 6.95186 14.0183 6.875 14.3164C6.40625 16.1133 5.85938 19.4141 5.85938 25C5.85938 30.5859 6.40625 33.8867 6.875 35.6836C6.95186 35.9816 7.09808 36.2573 7.30173 36.4881C7.50538 36.7189 7.76071 36.8983 8.04688 37.0117C14.2969 39.4141 24.8828 39.375 25 39.375C25.1172 39.375 35.7031 39.4141 41.9531 37.0117C42.2393 36.8983 42.4946 36.7189 42.6983 36.4881C42.9019 36.2573 43.0481 35.9816 43.125 35.6836C43.5938 33.8867 44.1406 30.5859 44.1406 25C44.1406 19.4141 43.5938 16.1133 43.125 14.3164Z" fill="white"/>
</svg>
