<svg width="20" height="21" viewBox="0 0 20 21" fill="none" xmlns="http://www.w3.org/2000/svg">
<path d="M10.015 20.03C9.48367 20.0274 8.97467 19.8159 8.59801 19.4411C8.22134 19.0663 8.00726 18.5584 8.002 18.027H12.008C12.0104 18.2947 11.9597 18.5603 11.8588 18.8082C11.7292 19.1054 11.5309 19.3675 11.2801 19.5729C11.0294 19.7784 10.7334 19.9213 10.4166 19.99H10.3706C10.2535 20.0142 10.1345 20.0276 10.015 20.03V20.03ZM18.027 17.0255H2.003V15.0225L4.00601 14.021V8.51277C3.95325 7.09977 4.27234 5.69767 4.9314 4.44667C5.25572 3.87308 5.69798 3.37477 6.22899 2.98462C6.76001 2.59448 7.36771 2.32135 8.01202 2.18327V0H12.018V2.18327C14.6009 2.7982 16.024 5.04557 16.024 8.51277V14.021L18.027 15.0225V17.0255ZM20 8.01202H17.997C17.9509 6.73285 17.6227 5.47967 17.0358 4.34216C16.4488 3.20466 15.6177 2.21095 14.6019 1.43215L16.024 0C17.2219 0.931876 18.1898 2.1263 18.8533 3.49124C19.5393 4.90438 19.9295 6.44274 20 8.01202ZM2.003 8.01202H0C0.0701052 6.44266 0.460691 4.90436 1.14672 3.49124C1.81018 2.1263 2.77811 0.931876 3.97596 0L5.3981 1.43215C4.38218 2.21085 3.551 3.20454 2.96406 4.34207C2.37712 5.47959 2.04893 6.73282 2.003 8.01202V8.01202Z" fill="black"/>
</svg>
