<svg width="27" height="27" viewBox="0 0 27 27" fill="none" xmlns="http://www.w3.org/2000/svg">
<g clip-path="url(#clip0_34_102)">
<path d="M25.5601 2.85536L20.1085 0.232688C19.8002 0.083315 19.453 0.0337523 19.1152 0.0908947C18.7774 0.148037 18.4658 0.309043 18.2237 0.551516L7.7819 10.0791L3.23135 6.6283C3.02641 6.47162 2.77298 6.39185 2.51524 6.4029C2.25751 6.41395 2.01183 6.51511 1.82105 6.68875L0.363552 8.01706C0.249634 8.12001 0.158498 8.24564 0.0959955 8.38588C0.0334928 8.52613 0.0010038 8.67789 0.000613903 8.83144C0.000224004 8.98498 0.0319418 9.13691 0.0937314 9.27747C0.155521 9.41803 0.246017 9.54412 0.359412 9.64764L4.30626 13.2492L0.359412 16.8507C0.246017 16.9542 0.155521 17.0803 0.0937314 17.2208C0.0319418 17.3614 0.000224004 17.5133 0.000613903 17.6669C0.0010038 17.8204 0.0334928 17.9722 0.0959955 18.1124C0.158498 18.2527 0.249634 18.3783 0.363552 18.4813L1.82105 19.8096C2.01183 19.9832 2.25751 20.0844 2.51524 20.0954C2.77298 20.1065 3.02641 20.0267 3.23135 19.87L7.7819 16.4151L18.2287 25.9468C18.4699 26.1892 18.7808 26.3503 19.118 26.4075C19.4551 26.4646 19.8017 26.415 20.1094 26.2656L25.5659 23.6388C25.8469 23.5038 26.0839 23.292 26.2495 23.0279C26.4151 22.7638 26.5025 22.4583 26.5017 22.1465V4.34598C26.5017 3.71164 26.1348 3.12947 25.5617 2.8537L25.5601 2.85536ZM19.8791 19.2671L11.9515 13.25L19.8791 7.23283V19.2671Z" fill="white"/>
</g>
<defs>
<clipPath id="clip0_34_102">
<rect width="26.5" height="26.5" fill="white"/>
</clipPath>
</defs>
</svg>
