<svg width="50" height="50" viewBox="0 0 50 50" fill="none" xmlns="http://www.w3.org/2000/svg">
<path d="M25 33.9844C23.2231 33.9844 21.486 33.4575 20.0085 32.4702C18.5311 31.483 17.3795 30.0799 16.6995 28.4382C16.0195 26.7965 15.8416 24.99 16.1883 23.2472C16.5349 21.5044 17.3906 19.9036 18.6471 18.6471C19.9036 17.3906 21.5044 16.5349 23.2472 16.1883C24.99 15.8416 26.7965 16.0195 28.4382 16.6995C30.0799 17.3795 31.483 18.5311 32.4702 20.0085C33.4575 21.486 33.9844 23.2231 33.9844 25C33.9844 27.3828 33.0378 29.668 31.3529 31.3529C29.668 33.0378 27.3828 33.9844 25 33.9844ZM25 18.3594C23.6866 18.3594 22.4027 18.7488 21.3107 19.4785C20.2186 20.2082 19.3675 21.2453 18.8649 22.4587C18.3622 23.6722 18.2307 25.0074 18.487 26.2955C18.7432 27.5837 19.3757 28.7669 20.3044 29.6956C21.2331 30.6243 22.4163 31.2568 23.7045 31.513C24.9926 31.7693 26.3278 31.6378 27.5413 31.1351C28.7547 30.6325 29.7918 29.7814 30.5215 28.6893C31.2512 27.5973 31.6406 26.3134 31.6406 25C31.6355 23.2404 30.9342 21.5543 29.6899 20.3101C28.4457 19.0658 26.7596 18.3645 25 18.3594ZM33.5938 44.1406H16.4062C13.609 44.1406 10.9264 43.0294 8.94848 41.0515C6.97056 39.0736 5.85938 36.391 5.85938 33.5938V16.4062C5.85937 13.609 6.97056 10.9264 8.94848 8.94848C10.9264 6.97056 13.609 5.85938 16.4062 5.85938H33.5938C36.391 5.85938 39.0736 6.97056 41.0515 8.94848C43.0294 10.9264 44.1406 13.609 44.1406 16.4062V33.5938C44.1406 36.391 43.0294 39.0736 41.0515 41.0515C39.0736 43.0294 36.391 44.1406 33.5938 44.1406ZM41.7969 16.4062C41.7969 14.2306 40.9326 12.1441 39.3942 10.6058C37.8559 9.06738 35.7694 8.20312 33.5938 8.20312H16.4062C14.2306 8.20312 12.1441 9.06738 10.6058 10.6058C9.06738 12.1441 8.20312 14.2306 8.20312 16.4062V33.5938C8.20312 35.7694 9.06738 37.8559 10.6058 39.3942C12.1441 40.9326 14.2306 41.7969 16.4062 41.7969H33.5938C35.7694 41.7969 37.8559 40.9326 39.3942 39.3942C40.9326 37.8559 41.7969 35.7694 41.7969 33.5938V16.4062ZM37.1094 35.1562C37.1094 34.77 36.9948 34.3923 36.7802 34.0712C36.5656 33.75 36.2606 33.4996 35.9037 33.3518C35.5468 33.204 35.1541 33.1653 34.7752 33.2407C34.3963 33.316 34.0483 33.502 33.7752 33.7752C33.502 34.0483 33.316 34.3963 33.2407 34.7752C33.1653 35.1541 33.204 35.5468 33.3518 35.9037C33.4996 36.2606 33.75 36.5656 34.0711 36.7802C34.3923 36.9948 34.77 37.1094 35.1562 37.1094C35.6743 37.1094 36.171 36.9036 36.5373 36.5373C36.9036 36.171 37.1094 35.6743 37.1094 35.1562Z" fill="white"/>
</svg>
