<svg width="54" height="48" viewBox="0 0 63 57" fill="none" xmlns="http://www.w3.org/2000/svg">
<g id="logoutSvg">
<path id="Vector" d="M37.8333 15.6667V9.33333C37.8333 7.65363 37.1661 6.04272 35.9783 4.85499C34.7906 3.66726 33.1797 3 31.5 3H9.33333C7.65363 3 6.04272 3.66726 4.85499 4.85499C3.66726 6.04272 3 7.65363 3 9.33333V47.3333C3 49.013 3.66726 50.6239 4.85499 51.8117C6.04272 52.9994 7.65363 53.6667 9.33333 53.6667H31.5C33.1797 53.6667 34.7906 52.9994 35.9783 51.8117C37.1661 50.6239 37.8333 49.013 37.8333 47.3333V41" stroke="white" stroke-width="5" stroke-linecap="round" stroke-linejoin="round"/>
<path id="Vector_2" d="M15.6667 28.3333H60.0001L50.5001 18.8333M50.5001 37.8333L60.0001 28.3333" stroke="white" stroke-width="5" stroke-linecap="round" stroke-linejoin="round"/>
</g>
</svg>
