<svg width="45" height="34" viewBox="0 0 45 34" fill="none" xmlns="http://www.w3.org/2000/svg">
<path d="M6.56566 1.31136e-08H37.8788C39.5558 -0.000102174 41.1693 0.597013 42.3883 1.66885C43.6073 2.7407 44.3394 4.206 44.4343 5.76419L44.4444 6.11012V27.7305C44.4446 29.2912 43.8029 30.7928 42.6512 31.9272C41.4994 33.0616 39.9249 33.7429 38.2505 33.8312L37.8788 33.8406H6.56566C4.88861 33.8407 3.27509 33.2436 2.0561 32.1718C0.837105 31.0999 0.105048 29.6346 0.0101013 28.0765L1.40913e-08 27.7305V6.11012C-0.000109791 4.54943 0.641523 3.04786 1.79328 1.91344C2.94503 0.779025 4.51958 0.0977594 6.19394 0.00940041L6.56566 1.31136e-08H37.8788H6.56566ZM41.4141 11.1016L22.9212 20.0506C22.7421 20.1372 22.5462 20.1897 22.3449 20.2048C22.1437 20.22 21.9413 20.1976 21.7495 20.1389L21.5232 20.0506L3.0303 11.1016V27.7305C3.03034 28.5562 3.36398 29.3517 3.96501 29.9591C4.56604 30.5665 5.3905 30.9414 6.27475 31.0093L6.56566 31.0206H37.8788C38.7664 31.0205 39.6214 30.7098 40.2742 30.15C40.9269 29.5903 41.3295 28.8226 41.402 27.9994L41.4141 27.7305V11.1016ZM37.8788 2.82005H6.56566C5.6784 2.82008 4.8236 3.13058 4.17093 3.68991C3.51825 4.24924 3.11543 5.0165 3.04242 5.83939L3.0303 6.11012V7.92247L22.2222 17.2098L41.4141 7.92247V6.11012C41.4141 5.28412 41.0801 4.48838 40.4787 3.88094C39.8772 3.27351 39.0523 2.89883 38.1677 2.83133L37.8788 2.82005Z" fill="white"/>
</svg>
