<svg width="26" height="33" viewBox="0 0 26 33" fill="none" xmlns="http://www.w3.org/2000/svg">
<path d="M0 0H13H19.5L23 4.5L26 8.25V16.5V33H0V0Z" fill="white"/>
<path d="M12.5245 13.4635C12.6741 13.0029 13.3259 13.0029 13.4755 13.4635L14.4593 16.4914C14.5263 16.6974 14.7183 16.8369 14.9349 16.8369H18.1186C18.6029 16.8369 18.8043 17.4567 18.4124 17.7414L15.8368 19.6127C15.6615 19.74 15.5882 19.9657 15.6552 20.1717L16.639 23.1996C16.7886 23.6602 16.2614 24.0433 15.8695 23.7586L13.2939 21.8873C13.1186 21.76 12.8814 21.76 12.7061 21.8873L10.1305 23.7586C9.73859 24.0433 9.21136 23.6602 9.36103 23.1996L10.3448 20.1717C10.4118 19.9657 10.3385 19.74 10.1632 19.6127L7.58755 17.7414C7.1957 17.4567 7.39708 16.8369 7.88145 16.8369H11.0651C11.2817 16.8369 11.4737 16.6974 11.5407 16.4914L12.5245 13.4635Z" fill="#7885EE"/>
<path d="M18.8435 3.30414C19.1223 2.58658 20.0733 2.43989 20.5553 3.04008L23.2924 6.44809C23.7744 7.04829 23.426 7.94523 22.6652 8.06258L18.3452 8.72895C17.5844 8.84631 16.9819 8.09606 17.2606 7.37851L18.8435 3.30414Z" fill="#7885EE"/>
</svg>
