<svg width="20" height="20" viewBox="0 0 69 69" fill="none" xmlns="http://www.w3.org/2000/svg">
<path d="M29.3333 58.6667C35.8416 58.6653 42.1623 56.4866 47.289 52.4773L63.4077 68.596L68.5923 63.4113L52.4737 47.2927C56.485 42.1654 58.6651 35.8433 58.6667 29.3333C58.6667 13.1597 45.507 0 29.3333 0C13.1597 0 0 13.1597 0 29.3333C0 45.507 13.1597 58.6667 29.3333 58.6667ZM29.3333 7.33333C41.4663 7.33333 51.3333 17.2003 51.3333 29.3333C51.3333 41.4663 41.4663 51.3333 29.3333 51.3333C17.2003 51.3333 7.33333 41.4663 7.33333 29.3333C7.33333 17.2003 17.2003 7.33333 29.3333 7.33333Z" fill="black"/>
<path d="M34.5107 24.1486C35.9003 25.5419 36.6667 27.3826 36.6667 29.3332H44C44.0033 27.4061 43.6245 25.4975 42.8856 23.7177C42.1468 21.9379 41.0624 20.3221 39.6953 18.9639C34.144 13.4199 24.519 13.4199 18.9713 18.9639L24.1487 24.1559C26.9353 21.3766 31.7387 21.3839 34.5107 24.1486Z" fill="black"/>
</svg>
