<svg width="30" height="41" viewBox="0 0 30 41" fill="none" xmlns="http://www.w3.org/2000/svg">
<path d="M26.5 20.4577C24.5677 22.2459 23.1032 23.8673 22.1063 25.3219C21.1095 26.7765 20.6111 28.1577 20.6111 29.4655C20.6111 29.8125 20.4654 30.1128 20.174 30.3663C19.8827 30.6199 19.5376 30.7466 19.1389 30.7466H10.3056C9.90683 30.7466 9.56178 30.6199 9.2704 30.3663C8.97902 30.1128 8.83333 29.8125 8.83333 29.4655C8.83333 28.1577 8.33492 26.7765 7.33811 25.3219C6.34129 23.8673 4.87674 22.2459 2.94444 20.4577C0.981481 18.1891 0 15.6402 0 12.8111C0 10.4891 0.659433 8.34723 1.9783 6.38553C3.29716 4.42383 5.08377 2.86915 7.33811 1.72149C9.59245 0.573831 12.0538 0 14.7222 0C17.3906 0 19.852 0.573831 22.1063 1.72149C24.3607 2.86915 26.1473 4.42383 27.4661 6.38553C28.785 8.34723 29.4444 10.4891 29.4444 12.8111C29.4444 15.6402 28.463 18.1891 26.5 20.4577ZM10.3056 33.3089H19.1389C19.5376 33.3089 19.8827 33.4356 20.174 33.6892C20.4654 33.9427 20.6111 34.243 20.6111 34.59C20.6111 34.9369 20.4654 35.2372 20.174 35.4908C19.8827 35.7443 19.5376 35.8711 19.1389 35.8711H10.3056C9.90683 35.8711 9.56178 35.7443 9.2704 35.4908C8.97902 35.2372 8.83333 34.9369 8.83333 34.59C8.83333 34.243 8.97902 33.9427 9.2704 33.6892C9.56178 33.4356 9.90683 33.3089 10.3056 33.3089ZM14.7222 40.9955C13.0966 40.9955 11.7088 40.742 10.5586 40.2349C9.40842 39.7278 8.83333 39.1272 8.83333 38.4333H20.6111C20.6111 39.1272 20.036 39.7278 18.8859 40.2349C17.7357 40.742 16.3478 40.9955 14.7222 40.9955Z" fill="white"/>
</svg>
